HIERARCHY
ROOT Hips
{
	OFFSET 28.1985 91.3596 -129.38
	CHANNELS 6 Xposition Yposition Zposition Zrotation Xrotation Yrotation
	JOINT Spine
	{
		OFFSET 0 10.59 0
		CHANNELS 3 Zrotation Xrotation Yrotation
		JOINT Spine1
		{
			OFFSET 0 10.59 0
			CHANNELS 3 Zrotation Xrotation Yrotation
			JOINT Spine2
			{
				OFFSET 0 10.59 0
				CHANNELS 3 Zrotation Xrotation Yrotation
				JOINT Spine3
				{
					OFFSET 0 10.59 0
					CHANNELS 3 Zrotation Xrotation Yrotation
					JOINT LeftShoulder
					{
						OFFSET 1.5 7.31538 0
						CHANNELS 3 Zrotation Xrotation Yrotation
						JOINT LeftArm
						{
							OFFSET 14.3424 0 0
							CHANNELS 3 Zrotation Xrotation Yrotation
							JOINT LeftForeArm
							{
								OFFSET 29.4034 0 0
								CHANNELS 3 Zrotation Xrotation Yrotation
								JOINT LeftHand
								{
									OFFSET 23.4565 0 0
									CHANNELS 3 Zrotation Xrotation Yrotation
									End Site
									{
										OFFSET 10 0 0
									}
								}
							}
						}
					}
					JOINT RightShoulder
					{
						OFFSET -1.49999 7.31538 0
						CHANNELS 3 Zrotation Xrotation Yrotation
						JOINT RightArm
						{
							OFFSET -14.3424 0 0
							CHANNELS 3 Zrotation Xrotation Yrotation
							JOINT RightForeArm
							{
								OFFSET -29.4034 0 0
								CHANNELS 3 Zrotation Xrotation Yrotation
								JOINT RightHand
								{
									OFFSET -23.4565 0 0
									CHANNELS 3 Zrotation Xrotation Yrotation
									End Site
									{
										OFFSET -10 0 0
									}
								}
							}
						}
					}
					JOINT Neck
					{
						OFFSET 0 10.59 0
						CHANNELS 3 Zrotation Xrotation Yrotation
						JOINT Head
						{
							OFFSET 0 9.22924 0
							CHANNELS 3 Zrotation Xrotation Yrotation
							End Site
							{
								OFFSET 0 15 0
							}
						}
					}
				}
			}
		}
	}
	JOINT LeftUpLeg
	{
		OFFSET 11.2279 0 0
		CHANNELS 3 Zrotation Xrotation Yrotation
		JOINT LeftLeg
		{
			OFFSET 0 -47.7577 0
			CHANNELS 3 Zrotation Xrotation Yrotation
			JOINT LeftFoot
			{
				OFFSET 0 -35.6859 0
				CHANNELS 3 Zrotation Xrotation Yrotation
				JOINT LeftToeBase
				{
					OFFSET 0 -5.73588 9.93486
					CHANNELS 3 Zrotation Xrotation Yrotation
					End Site
					{
						OFFSET 0 0 5
					}
				}
			}
		}
	}
	JOINT RightUpLeg
	{
		OFFSET -11.2279 0 0
		CHANNELS 3 Zrotation Xrotation Yrotation
		JOINT RightLeg
		{
			OFFSET 0 -47.7577 0
			CHANNELS 3 Zrotation Xrotation Yrotation
			JOINT RightFoot
			{
				OFFSET 0 -35.6859 0
				CHANNELS 3 Zrotation Xrotation Yrotation
				JOINT RightToeBase
				{
					OFFSET 0 -5.73588 9.93486
					CHANNELS 3 Zrotation Xrotation Yrotation
					End Site
					{
						OFFSET 0 0 5
					}
				}
			}
		}
	}
}
MOTION
Frames: 18
Frame Time: 0.0111111
48.3588 85.4343 -115.198 3.05618 -4.52142 41.7421 176.552 176.127 173.586 176.552 176.127 173.586 176.552 176.127 173.586 176.552 176.127 173.586 32.8455 -4.36651 -1.90964 161.559 179.354 104.48 21.8055 -48.8503 -49.481 25.4825 -10.3718 5.21275 0.413758 -0.786014 3.61501 165.87 -159.584 -163.06 163.669 -158.617 -158.774 167.538 -170.329 -169.332 14.1598 12.5252 -24.6655 0.269426 2.78411 -0.399197 0.348193 -8.70062 -0.590572 1.89809 43.6956 -1.27847 176.238 -150.866 -164.707 0.103926 -1.40233 0.126916 163.179 -162.336 -171.716 0.963348 2.1069 0.0623599 31.6056 17.144 -20.1192 0.106577 5.45863 0.112363
48.2275 85.1799 -114.892 2.97417 -4.49581 43.1741 176.641 176.044 173.417 176.641 176.044 173.417 176.641 176.044 173.417 176.641 176.044 173.417 30.8616 -3.86376 -1.90843 161.023 177.863 103.342 22.0262 -45.0409 -46.6896 26.4053 -11.4609 4.68285 179.703 -179.025 -176.385 167.008 -161.752 -160.931 163.608 -160.109 -159.917 167.845 -170.838 -169.598 14.0739 11.741 -25.3311 0.22477 3.0534 -0.498276 0.583308 -9.38322 -1.44527 1.93533 44.8783 -1.30448 175.663 -150.302 -165.405 0.103382 -1.15693 0.126904 162.748 -162.382 -171.821 0.963517 1.95209 0.0623539 33.9218 17.7436 -21.8667 0.104116 6.70532 0.112624
48.0318 84.9641 -114.597 2.75505 -4.56062 44.581 176.819 175.934 173.289 176.819 175.934 173.289 176.819 175.934 173.289 176.819 175.934 173.289 28.3981 -3.09358 -1.90687 160.616 176.767 102.243 21.7145 -40.9982 -44.2406 27.0692 -12.0251 3.97964 178.911 -179.002 -176.385 167.987 -163.883 -158.987 163.409 -162.31 -161.067 168.752 -170.513 -170.081 13.8009 10.7158 -26.0627 0.231716 3.37862 -0.56292 1.0448 -10.1342 -2.16141 1.97314 46.0312 -1.33143 175.003 -149.808 -166.313 0.102931 -0.953578 0.126895 162.584 -162.494 -171.383 0.963305 2.14659 0.0623615 35.8175 17.6333 -23.1018 0.101343 8.1021 0.112981
47.8131 84.7328 -114.266 2.58443 -4.60895 46.0978 176.98 175.817 173.181 176.98 175.817 173.181 176.98 175.817 173.181 176.98 175.817 173.181 26.0961 -2.40486 -1.90577 159.772 175.555 101.496 20.2239 -37.4145 -42.5735 26.8744 -12.3054 2.96183 178.269 -179.23 -176.385 168.604 -166.149 -157.169 163.374 -164.581 -162.465 169.344 -170.678 -170.504 13.5815 9.62477 -26.9164 0.229318 3.67794 -0.628958 1.47533 -10.8758 -2.87794 2.01019 47.1158 -1.35833 174.432 -149.385 -167.216 0.102549 -0.780824 0.12689 162.555 -162.815 -170.843 0.962722 2.68127 0.0623861 35.3296 17.7827 -23.1538 0.105051 6.23228 0.112518
47.5289 84.5631 -113.924 2.18206 -4.63535 47.5814 177.212 175.756 173.071 177.212 175.756 173.071 177.212 175.756 173.071 177.212 175.756 173.071 23.0278 -1.52904 -1.90477 159.305 174.49 100.965 19.0023 -33.2535 -40.6573 27.4952 -13.1311 2.59193 177.531 -179.192 -176.385 169.48 -168.603 -155.061 163.585 -167.216 -163.828 169.601 -170.482 -170.988 13.216 8.48708 -27.7706 0.276065 4.07562 -0.67046 2.1264 -11.7904 -3.41814 2.04252 48.0278 -1.3822 173.866 -149.027 -168.375 0.101909 -0.491902 0.126883 162.696 -163.03 -169.891 0.961767 3.55741 0.0624381 34.7344 16.3797 -22.9725 0.11035 3.53816 0.112067
47.1255 84.4964 -113.63 1.3835 -4.75765 48.9482 177.616 175.707 173.032 177.616 175.707 173.032 177.616 175.707 173.032 177.616 175.707 173.032 19.1944 -0.972656 -1.90437 159.102 173.251 100.668 17.2079 -29.6363 -38.9844 27.0502 -13.7876 1.73766 177.128 -179.067 -176.385 169.472 -171.416 -153.156 164.181 -169.25 -165.451 170.038 -170.158 -171.368 12.5852 6.98001 -28.843 0.347599 4.59766 -0.71746 3.14303 -12.9929 -3.85797 2.07018 48.7831 -1.40289 173.187 -148.881 -169.471 0.101666 -0.382181 0.126881 163.059 -162.878 -168.72 0.960567 4.65462 0.062524 36.1804 13.0413 -24.0031 0.111095 3.15794 0.112023
46.6882 84.4342 -113.281 0.611368 -4.8522 50.3927 177.98 175.665 173.028 177.98 175.665 173.028 177.98 175.665 173.028 177.98 175.665 173.028 15.2613 -0.37577 -1.90414 158.741 172.149 100.633 15.8013 -24.7402 -36.9761 26.9293 -14.2035 1.16149 176.968 -178.725 -176.384 169.751 -173.944 -151.201 164.96 -171.904 -166.953 165.851 -174.483 -171.61 12.1008 5.42855 -30.023 0.415914 5.11424 -0.764426 4.13773 -14.2348 -4.29103 2.09599 49.4682 -1.42241 172.514 -148.884 -170.685 0.101312 -0.222575 0.126879 163.489 -162.714 -167.879 0.959142 5.9536 0.0626557 37.0649 10.3184 -24.2732 0.114632 1.34908 0.111884
46.2711 84.372 -112.872 179.922 -175.161 -128.082 178.251 175.673 173.013 178.251 175.673 173.013 178.251 175.673 173.013 178.251 175.673 173.013 11.3926 0.269815 -1.90412 158.256 171.015 101.198 14.327 -19.5743 -35.0965 26.4838 -15.6337 1.65354 176.976 -178.302 -176.384 170.458 -176.48 -148.822 165.751 -175.062 -168.805 166.366 -174.411 -172.56 11.839 4.13666 -31.2599 0.460147 5.56353 -0.817529 4.95671 -15.4374 -4.8037 2.11558 49.9754 -1.43735 171.875 -148.921 -171.811 0.101017 -0.0891379 0.126878 163.811 -162.551 -167.66 0.957849 7.12695 0.062803 37.5712 7.79444 -24.255 0.118076 -0.414779 0.111856
45.8246 84.3426 -112.426 179.158 -175.124 -126.467 178.604 175.658 173.069 178.604 175.658 173.069 178.604 175.658 173.069 178.604 175.658 173.069 7.16987 0.621951 -1.90421 157.61 169.726 102.113 12.4257 -14.8329 -33.3011 27.9465 -15.9957 1.98487 176.94 -177.744 -176.383 171.201 -179.376 -147.183 166.473 -177.373 -170.121 167.75 -173.568 -173.607 11.2385 2.33137 -32.8667 0.539878 6.15835 -0.870108 5.8189 -16.7043 -5.40843 2.13191 50.3904 -1.44989 171.183 -149.045 -172.919 0.1006 0.0992569 0.126878 164.302 -162.314 -168.194 0.956632 8.22623 0.0629656 37.1155 5.39158 -24.0346 0.116006 0.645529 0.11186
45.3849 84.3146 -111.952 178.503 -175.173 -124.789 178.91 175.649 173.176 178.91 175.649 173.176 178.91 175.649 173.176 178.91 175.649 173.176 2.91749 0.882246 -1.90432 157.097 168.358 103.47 10.698 -10.8445 -31.3463 26.0793 -15.4814 1.42495 176.969 -177.325 -176.381 172.356 178.032 -145.935 167.001 179.963 -171.084 170.455 -171.571 -174.811 10.5543 0.439463 -34.7805 0.633214 6.72009 -0.903346 6.50637 -17.9316 -6.03591 2.14338 50.6776 -1.45875 170.531 -149.258 -174.067 0.100157 0.299244 0.12688 164.712 -162.067 -169.271 0.955501 9.24187 0.0631373 35.8315 3.74705 -23.8621 0.113529 1.91354 0.111916
44.9307 84.3066 -111.444 177.816 -175.262 -123.043 179.199 175.675 173.311 179.199 175.675 173.311 179.199 175.675 173.311 179.199 175.675 173.311 178.536 178.883 178.096 156.217 167.144 105.467 8.78909 -6.64949 -29.3381 26.0382 -14.8528 1.25605 177.336 -176.946 -176.38 173.903 175.899 -144.877 167.723 177.622 -171.988 168.458 -173.607 -175.464 9.84723 -1.37805 -36.9486 0.70634 7.22296 -0.94161 7.10782 -19.1637 -6.82454 2.14566 50.7342 -1.46051 169.957 -149.52 -175.121 0.099891 0.41935 0.126881 165.126 -161.737 -170.496 0.954246 10.3623 0.063351 34.3549 1.98539 -23.623 0.111937 2.72777 0.11198
44.4872 84.3113 -110.874 177.233 -175.421 -121.29 179.401 175.722 173.52 179.401 175.722 173.52 179.401 175.722 173.52 179.401 175.722 173.52 174.45 178.244 178.095 155.122 166.436 107.99 6.90394 -2.69852 -27.4112 26.035 -12.6655 1.61319 178.225 -177.101 -176.381 175.7 174.595 -144.373 168.003 173.883 -172.413 170.755 -170.781 -176.757 9.24424 -3.00572 -39.4656 0.75024 7.63592 -0.987078 7.58212 -20.2854 -7.62556 2.14085 50.6145 -1.45679 169.231 -149.911 -176.227 0.0994686 0.610072 0.126885 165.468 -161.446 -171.891 0.952983 11.4817 0.0635903 32.5104 0.429603 -23.355 0.110349 3.53853 0.112067
44.0874 84.3193 -110.298 176.76 -175.673 -119.423 179.562 175.782 173.766 179.562 175.782 173.766 179.562 175.782 173.766 179.562 175.782 173.766 170.535 177.667 178.094 154.07 165.95 110.998 4.51472 0.481338 -25.1107 26.0026 -12.5631 1.56702 179.301 -177.734 -176.382 177.67 173.903 -144.317 168.116 169.463 -172.487 171.236 -169.613 -178.449 8.38952 -4.49194 -42.433 0.875924 8.05437 -0.967476 7.78932 -21.329 -8.6029 2.12934 50.3256 -1.44791 168.606 -150.311 -177.128 0.098968 0.836109 0.126891 165.611 -161.311 -173.765 0.95202 12.3291 0.0637889 30.3891 -1.00834 -23.2197 0.108546 4.45793 0.112193
43.6741 84.3653 -109.66 176.307 -175.887 -117.663 179.69 175.878 174.106 179.69 175.878 174.106 179.69 175.878 174.106 179.69 175.878 174.106 167.005 177.015 178.093 153.14 165.545 114.495 2.9076 3.30488 -22.7318 22.9019 -14.0355 2.33121 0.659784 -1.38037 3.61572 179.852 173.629 -144.627 168.196 164.875 -172.383 172.026 -168.496 -179.558 7.45446 -5.52048 -45.7006 1.04549 8.42971 -0.904887 8.09389 -22.2683 -9.39848 2.11376 49.9288 -1.43596 167.875 -151.035 -178.264 0.0992419 0.712435 0.126888 165.794 -161.236 -175.542 0.9513 12.96 0.0639467 28.3884 -2.19903 -23.166 0.106773 5.35959 0.112344
43.2517 84.4535 -109.01 175.72 -176.066 -115.996 179.853 176.062 174.501 179.853 176.062 174.501 179.853 176.062 174.501 179.853 176.062 174.501 163.683 176.194 178.092 152.292 165.665 118.552 1.06229 6.02103 -20.5713 21.8235 -11.66 1.80776 2.23315 -0.266459 3.61471 2.20019 6.01167 34.885 168.667 161.171 -172.302 170.214 -171.353 179.903 6.23591 -6.00226 -49.1801 1.2899 8.73096 -0.764223 8.49777 -23.2306 -10.0705 2.08905 49.2858 -1.41714 167.336 -151.627 -179.194 0.0989237 0.856112 0.126892 165.997 -161.014 -177.206 0.950636 13.5381 0.0640988 26.8744 -3.0581 -23.0617 0.105685 5.91136 0.112451
42.8065 84.5765 -108.374 175.171 -176.153 -114.469 0.00388911 3.77175 -5.07436 0.00388911 3.77175 -5.07436 0.00388911 3.77175 -5.07436 0.00388911 3.77175 -5.07436 161.119 175.601 178.09 151.749 165.675 122.885 179.791 171.161 161.44 20.8306 -10.94 2.89524 4.58342 0.645064 3.6149 3.89719 5.37663 34.5118 169.278 156.242 -172.32 172.427 -170.126 179.37 5.10043 -6.12392 -52.515 1.58513 8.85741 -0.551393 9.01659 -24.1032 -10.5217 2.06244 48.574 -1.39707 166.721 -152.479 179.742 0.0988842 0.873914 0.126893 166.212 -160.657 -178.614 0.949722 14.3294 0.0643188 25.9685 -3.7274 -22.9131 0.10555 5.97962 0.112465
42.3824 84.7347 -107.743 174.608 -176.303 -113.005 0.0887604 3.57238 -4.61728 0.0887604 3.57238 -4.61728 0.0887604 3.57238 -4.61728 0.0887604 3.57238 -4.61728 158.886 175.016 178.089 151.656 165.799 127.275 178.328 169.737 163.961 19.3557 -10.9971 3.85401 7.06722 1.31891 3.61563 5.96437 4.69034 33.9534 169.418 149.479 -171.876 173.499 -169.392 178.673 4.36923 -5.97293 -55.7104 1.79092 8.81194 -0.374553 9.47205 -24.9025 -10.9017 2.02718 47.5991 -1.37084 166.064 -153.43 178.78 0.0987735 0.923918 0.126894 166.28 -160.114 -179.944 0.948451 15.4211 0.0646452 25.5361 -4.40699 -22.5519 0.105837 5.8343 0.112436
41.9918 84.9265 -107.097 174.199 -176.462 -111.643 0.0898462 3.44049 -4.12999 0.0898462 3.44049 -4.12999 0.0898462 3.44049 -4.12999 0.0898462 3.44049 -4.12999 157.33 174.548 178.087 151.264 166.482 131.76 177.402 167.052 166.369 18.1696 -11.7205 3.41293 9.21239 2.02052 3.61692 8.71485 3.98204 33.371 169.556 143.764 -171.419 173.327 -170.688 178.181 4.19312 -5.93559 -58.6282 1.84186 8.54929 -0.275775 9.89553 -25.4679 -11.0635 1.98812 46.4748 -1.34225 165.563 -154.395 177.912 0.098376 1.10333 0.126901 166.3 -159.695 178.852 0.94729 16.4085 0.0649636 25.133 -4.95721 -22.3361 0.106124 5.6887 0.112407
